<svg width="35" height="35" viewBox="0 0 35 35" fill="none" xmlns="http://www.w3.org/2000/svg">
<path d="M12.8335 31.7884H21.3895C28.5194 31.7884 31.3714 28.9364 31.3714 21.8065V13.2505C31.3714 6.12054 28.5194 3.26855 21.3895 3.26855H12.8335C5.70355 3.26855 2.85156 6.12054 2.85156 13.2505V21.8065C2.85156 28.9364 5.70355 31.7884 12.8335 31.7884Z" stroke="#292D32" stroke-width="2.13899" stroke-linecap="round" stroke-linejoin="round"/>
<path d="M26.2103 22.1919V11.226C26.2103 10.128 25.3262 9.32943 24.2425 9.41499H24.1854C22.2746 9.57185 19.3798 10.5558 17.7542 11.5682L17.5974 11.6681C17.3407 11.8249 16.8986 11.8249 16.6276 11.6681L16.3995 11.5255C14.7881 10.513 11.8934 9.55757 9.98253 9.40071C8.89877 9.31515 8.01465 10.128 8.01465 11.2118V22.1919C8.01465 23.0617 8.72762 23.8888 9.59748 23.9886L9.85415 24.0314C11.822 24.2881 14.8737 25.3005 16.6134 26.256L16.6562 26.2702C16.8986 26.4128 17.2978 26.4128 17.526 26.2702C19.2657 25.3006 22.3316 24.3024 24.3137 24.0314L24.6132 23.9886C25.4973 23.8888 26.2103 23.076 26.2103 22.1919Z" stroke="#292D32" stroke-width="2.13899" stroke-linecap="round" stroke-linejoin="round"/>
<path d="M17.1123 11.9678V25.6003" stroke="#292D32" stroke-width="2.13899" stroke-linecap="round" stroke-linejoin="round"/>
</svg>
