<svg width="35" height="35" viewBox="0 0 35 35" fill="none" xmlns="http://www.w3.org/2000/svg">
<path d="M17.1115 27.1543C16.5268 27.1543 16.042 26.6694 16.042 26.0848V21.8068C16.042 21.2221 16.5268 20.7373 17.1115 20.7373C17.6961 20.7373 18.181 21.2221 18.181 21.8068V26.0848C18.181 26.6694 17.6961 27.1543 17.1115 27.1543Z" fill="#292D32"/>
<path d="M25.0973 32.5876H9.12616C6.53085 32.5876 4.16371 30.5912 3.73591 28.0387L1.83934 16.6735C1.52562 14.9053 2.39547 12.638 3.80721 11.5114L13.6893 3.59717C15.6002 2.0571 18.609 2.07136 20.5341 3.61143L30.4162 11.5114C31.8137 12.638 32.6693 14.9053 32.3841 16.6735L30.4875 28.0244C30.0597 30.5484 27.6355 32.5876 25.0973 32.5876ZM17.0975 4.59536C16.3417 4.59536 15.5859 4.82352 15.0298 5.26558L5.14764 13.1941C4.34908 13.8358 3.77869 15.3188 3.94981 16.3313L5.84638 27.6822C6.10306 29.1795 7.60035 30.4486 9.12616 30.4486H25.0973C26.6231 30.4486 28.1204 29.1795 28.3771 27.6679L30.2736 16.317C30.4305 15.3188 29.8601 13.8073 29.0758 13.1798L19.1937 5.27984C18.6233 4.82352 17.8532 4.59536 17.0975 4.59536Z" fill="#292D32"/>
</svg>
