<svg width="35" height="35" viewBox="0 0 35 35" fill="none" xmlns="http://www.w3.org/2000/svg">
<path d="M25.6677 10.6267C25.5822 10.6124 25.4824 10.6124 25.3968 10.6267C23.4289 10.5554 21.8604 8.94401 21.8604 6.94762C21.8604 4.90845 23.5002 3.26855 25.5394 3.26855C27.5786 3.26855 29.2185 4.92271 29.2185 6.94762C29.2042 8.94401 27.6356 10.5554 25.6677 10.6267Z" stroke="#292D32" stroke-width="2.13899" stroke-linecap="round" stroke-linejoin="round"/>
<path d="M24.199 21.0075C26.1526 21.3355 28.3059 20.9933 29.8174 19.9808C31.8281 18.6404 31.8281 16.4443 29.8174 15.1039C28.2916 14.0915 26.1099 13.7492 24.1562 14.0915" stroke="#292D32" stroke-width="2.13899" stroke-linecap="round" stroke-linejoin="round"/>
<path d="M8.51362 10.6267C8.59917 10.6124 8.69899 10.6124 8.78455 10.6267C10.7524 10.5554 12.321 8.94401 12.321 6.94762C12.321 4.90845 10.6811 3.26855 8.64195 3.26855C6.60279 3.26855 4.96289 4.92271 4.96289 6.94762C4.97715 8.94401 6.54575 10.5554 8.51362 10.6267Z" stroke="#292D32" stroke-width="2.13899" stroke-linecap="round" stroke-linejoin="round"/>
<path d="M9.98187 21.0075C8.02826 21.3355 5.87501 20.9933 4.36346 19.9808C2.35281 18.6404 2.35281 16.4443 4.36346 15.1039C5.88927 14.0915 8.07103 13.7492 10.0246 14.0915" stroke="#292D32" stroke-width="2.13899" stroke-linecap="round" stroke-linejoin="round"/>
<path d="M17.1121 21.279C17.0265 21.2648 16.9267 21.2648 16.8411 21.279C14.8733 21.2077 13.3047 19.5964 13.3047 17.6C13.3047 15.5608 14.9446 13.9209 16.9837 13.9209C19.0229 13.9209 20.6628 15.5751 20.6628 17.6C20.6486 19.5964 19.08 21.222 17.1121 21.279Z" stroke="#292D32" stroke-width="2.13899" stroke-linecap="round" stroke-linejoin="round"/>
<path d="M12.9631 25.7704C10.9524 27.1108 10.9524 29.3068 12.9631 30.6473C15.2447 32.1731 18.9808 32.1731 21.2623 30.6473C23.273 29.3068 23.273 27.1108 21.2623 25.7704C18.995 24.2588 15.2447 24.2588 12.9631 25.7704Z" stroke="#292D32" stroke-width="2.13899" stroke-linecap="round" stroke-linejoin="round"/>
</svg>
