<svg width="35" height="35" viewBox="0 0 35 35" fill="none" xmlns="http://www.w3.org/2000/svg">
<path d="M27.0938 13.2505C27.0938 15.3182 26.4806 17.2148 25.4254 18.7976C23.8853 21.0792 21.4469 22.6906 18.6091 23.1041C18.1243 23.1897 17.6252 23.2325 17.1118 23.2325C16.5985 23.2325 16.0994 23.1897 15.6145 23.1041C12.7768 22.6906 10.3384 21.0792 8.79829 18.7976C7.74306 17.2148 7.12988 15.3182 7.12988 13.2505C7.12988 7.73191 11.5932 3.26855 17.1118 3.26855C22.6304 3.26855 27.0938 7.73191 27.0938 13.2505Z" stroke="#292D32" stroke-width="2.13899" stroke-linecap="round" stroke-linejoin="round"/>
<path d="M30.302 26.7553L27.9491 27.3114C27.4215 27.4397 27.0079 27.8391 26.8939 28.3667L26.3948 30.4629C26.1238 31.6037 24.6693 31.9459 23.9135 31.0475L17.1116 23.2331L10.3096 31.0618C9.55379 31.9601 8.09928 31.6179 7.82834 30.4771L7.32924 28.3809C7.2009 27.8533 6.78736 27.4398 6.274 27.3257L3.92112 26.7696C2.83736 26.5129 2.45234 25.1582 3.23664 24.3739L8.79801 18.8125C10.3381 21.0941 12.7765 22.7055 15.6143 23.119C16.0991 23.2046 16.5982 23.2474 17.1116 23.2474C17.6249 23.2474 18.124 23.2046 18.6088 23.119C21.4466 22.7055 23.885 21.0941 25.4251 18.8125L30.9865 24.3739C31.7708 25.1439 31.3857 26.4986 30.302 26.7553Z" stroke="#292D32" stroke-width="2.13899" stroke-linecap="round" stroke-linejoin="round"/>
<path d="M17.9392 8.94424L18.7805 10.6269C18.8946 10.8551 19.194 11.0832 19.465 11.126L20.9908 11.3827C21.9605 11.5395 22.1886 12.2525 21.4899 12.9513L20.3063 14.1348C20.1067 14.3345 19.9926 14.7195 20.0639 15.0047L20.4061 16.4735C20.6771 17.6285 20.0639 18.0848 19.0372 17.4717L17.6112 16.6303C17.3545 16.4735 16.9267 16.4735 16.67 16.6303L15.244 17.4717C14.2173 18.0706 13.6041 17.6285 13.8751 16.4735L14.2173 15.0047C14.2744 14.7338 14.1745 14.3345 13.9749 14.1348L12.7913 12.9513C12.0926 12.2525 12.3208 11.5538 13.2904 11.3827L14.8162 11.126C15.0729 11.0832 15.3724 10.8551 15.4865 10.6269L16.3278 8.94424C16.7413 8.03161 17.4828 8.03161 17.9392 8.94424Z" stroke="#292D32" stroke-width="2.13899" stroke-linecap="round" stroke-linejoin="round"/>
</svg>
