<svg width="271" height="103" viewBox="0 0 271 103" fill="none" xmlns="http://www.w3.org/2000/svg">
<path d="M30.0335 54.8669C32.4435 54.7398 34.713 54.7398 37.1368 54.7398C37.1368 67.3786 37.1368 79.9738 37.1368 92.6802C35.0202 92.6802 33.0042 92.6802 30.7484 92.6802C30.7484 84.4826 30.7484 76.337 30.7484 68.1914C30.6128 68.1578 30.4772 68.1242 30.3415 68.0906C30.0191 68.6693 29.6636 69.2324 29.3793 69.8293C26.9703 74.8881 24.5236 79.9301 22.2092 85.032C21.6147 86.3426 20.8424 86.7909 19.4967 86.6449C18.0338 86.4862 16.5163 87.1171 15.598 85.0154C13.4204 80.0315 10.918 75.1895 8.54248 70.2922C8.17329 69.5311 7.78075 68.7813 6.91371 68.0798C6.91371 76.2579 6.91371 84.436 6.91371 92.6978C4.51446 92.6978 2.47728 92.6978 0.315247 92.6978C0.315247 80.1141 0.315247 67.5595 0.315247 54.597C2.4979 54.597 4.75759 54.493 6.99408 54.6748C7.51123 54.7168 8.08501 55.669 8.40228 56.3154C11.4975 62.621 14.543 68.9509 17.605 75.2728C17.9676 76.0213 18.3449 76.7627 18.8999 77.8782C22.6871 69.9944 26.29 62.4942 30.0335 54.8669Z" fill="#242525"/>
<path d="M207.098 66.5808C208.978 66.2858 209.524 67.0427 209.176 68.054C211.622 67.3705 214.14 66.2811 216.735 66.0449C219.644 65.7802 221.973 67.4451 223.279 69.4541C225.644 68.2832 227.734 66.7194 230.058 66.2012C235.969 64.8829 240.73 68.767 240.917 74.9192C241.096 80.7568 240.956 86.604 240.956 92.62C238.821 92.62 236.751 92.62 234.437 92.62C234.437 87.1919 234.497 81.8381 234.411 76.4868C234.369 73.9193 232.944 72.408 230.641 72.0653C228.524 71.7503 226.617 72.8156 225.78 74.972C225.42 75.8994 225.251 76.9544 225.24 77.9542C225.186 82.7684 225.216 87.5836 225.216 92.5971C223.04 92.5971 220.973 92.5971 218.674 92.5971C218.674 87.4034 218.734 82.2091 218.655 77.017C218.594 73.0518 215.843 71.0685 212.314 72.4315C209.935 73.3498 209.204 75.4298 209.189 77.7892C209.158 82.6854 209.18 87.5819 209.18 92.6394C207.019 92.6394 205.01 92.6394 202.835 92.6394C202.835 84.0498 202.835 75.4115 202.835 66.5776C204.246 66.5776 205.569 66.5776 207.098 66.5808Z" fill="#242525"/>
<path d="M247.654 70.0621C252.671 64.9523 258.049 64.564 264.019 68.9126C264.191 68.144 264.346 67.4529 264.518 66.6872C266.583 66.6872 268.608 66.6872 270.685 66.6872C270.685 75.4023 270.685 83.9869 270.685 92.6926C268.602 92.6926 266.584 92.6926 264.42 92.6926C264.349 91.8802 264.282 91.1319 264.185 90.0221C261.291 92.6203 258.163 93.7613 254.528 93.0526C245.445 91.2817 241.196 80.0686 246.454 71.7368C246.789 71.2044 247.184 70.7088 247.654 70.0621ZM259.728 86.8988C263.24 84.979 264.808 81.9146 264.226 78.1082C263.719 74.7891 261.048 72.1769 257.953 71.9722C254.857 71.7673 252.06 73.7819 250.994 76.9505C249.211 82.2479 253.772 88.4922 259.728 86.8988Z" fill="#242525"/>
<path d="M115.638 78.0768C115.638 83.0394 115.638 87.7647 115.638 92.6281C113.524 92.6281 111.583 92.6281 109.519 92.6281C109.386 91.8382 109.247 91.0037 109.056 89.8656C106.32 92.5557 103.186 93.7658 99.5403 93.1349C96.6479 92.6344 94.2101 91.2421 92.3296 88.9456C87.7379 83.3383 87.8874 75.0257 92.6737 69.7959C96.9795 65.0911 102.711 64.7721 109.108 68.9613C109.19 68.2246 109.265 67.5489 109.358 66.7212C111.376 66.7212 113.388 66.7212 115.638 66.7212C115.638 70.4606 115.638 74.1501 115.638 78.0768ZM104.395 72.3814C100.768 71.5647 98.0006 72.6971 96.3344 75.6799C94.2398 79.4298 95.629 84.3283 99.3596 86.3467C102.692 88.1496 106.649 86.8335 108.36 83.3528C110.382 79.241 108.846 74.6199 104.395 72.3814Z" fill="#242525"/>
<path d="M67.3272 70.5214C67.3272 78.0108 67.3272 85.2679 67.3272 92.6599C65.2006 92.6599 63.2558 92.6599 61.1998 92.6599C61.1041 91.9321 61.0047 91.1766 60.8403 89.926C58.097 92.5735 55.0634 93.7664 51.5349 93.1074C48.1157 92.4687 45.4096 90.6985 43.441 87.8017C39.6 82.1495 40.2741 74.3062 45.039 69.4767C49.3761 65.0808 54.5689 64.8445 60.7649 68.8659C60.9317 68.1 61.0854 67.3943 61.251 66.6337C63.2672 66.6337 65.2171 66.6337 67.3272 66.6337C67.3272 67.9331 67.3272 69.1112 67.3272 70.5214ZM61.0563 79.731C61.0024 79.1849 61.0034 78.6267 60.8858 78.0947C59.9749 73.9753 56.7511 71.4945 53.1619 72.1256C49.2951 72.8056 46.79 76.6157 47.4417 80.8258C48.0533 84.7775 51.441 87.5148 55.2342 87.1223C58.3334 86.8016 60.3185 84.4145 61.0563 79.731Z" fill="#242525"/>
<path d="M167.928 85.1372C169.162 86.2402 170.28 87.2187 171.387 88.1869C167.584 93.3721 159.793 94.8143 153.82 91.5543C148.075 88.4185 145.551 80.9156 148.073 74.4714C150.669 67.838 156.907 64.6016 163.713 66.3566C169.962 67.9677 173.811 74.4049 172.888 81.9569C166.711 81.9569 160.504 81.9569 154.131 81.9569C154.222 84.3008 155.48 85.6447 157.172 86.5102C160.067 87.9913 162.935 87.7768 165.681 85.9536C166.319 85.5303 167.098 85.3207 167.928 85.1372ZM159.6 77.0847C161.843 77.0847 164.087 77.0847 166.369 77.0847C165.687 73.3603 163.56 71.4769 160.289 71.4877C156.857 71.499 154.488 73.5319 153.989 77.0858C155.721 77.0858 157.428 77.0858 159.6 77.0847Z" fill="#242525"/>
<path d="M180.603 83.4731C178.117 77.847 175.707 72.3852 173.129 66.5453C175.432 66.5453 177.384 66.443 179.311 66.6116C179.845 66.6583 180.512 67.4193 180.773 68.006C182.853 72.6783 184.849 77.3875 187.116 82.6575C188.154 80.2287 188.974 78.329 189.777 76.4225C190.972 73.5901 192.092 70.7242 193.39 67.9403C193.674 67.3306 194.535 66.6851 195.191 66.6128C196.889 66.426 198.62 66.5502 200.666 66.5502C197.798 73.2321 195.054 79.645 192.293 86.0502C190.141 91.0428 187.917 96.0054 185.834 101.027C185.267 102.394 184.567 102.992 183.052 102.85C181.501 102.705 179.925 102.818 178.023 102.818C179.626 99.2216 181.016 95.8297 182.647 92.558C183.513 90.8194 183.505 89.3748 182.524 87.7267C181.764 86.4499 181.283 85.0066 180.603 83.4731Z" fill="#242525"/>
<path d="M126.514 92.1345C124.431 92.5546 122.372 92.7527 120.16 92.9656C120.16 84.0223 120.16 75.4374 120.16 66.7135C122.112 66.7135 124.055 66.7135 126.183 66.7135C126.289 67.3855 126.407 68.1335 126.57 69.1692C129.397 66.6525 132.441 65.4078 136.107 66.1211C140.162 66.9103 143.368 69.7285 143.59 73.8735C143.923 80.0844 143.677 86.3264 143.677 92.6683C141.696 92.6683 139.74 92.6683 137.487 92.6683C137.487 88.7271 137.488 84.7282 137.486 80.7293C137.486 79.7017 137.495 78.6736 137.469 77.6465C137.381 74.1344 135.55 72.1131 132.397 72.0269C129.347 71.9435 126.771 74.229 126.666 77.4486C126.507 82.2661 126.57 87.0909 126.514 92.1345Z" fill="#242525"/>
<path d="M71.5693 82.822C71.5692 77.3095 71.5692 72.0343 71.5692 66.6739C73.7415 66.6739 75.7656 66.6739 77.9013 66.6739C78.0131 67.6796 78.1149 68.5956 78.2524 69.8325C80.8206 66.7848 83.7955 65.2775 87.7581 66.3082C87.7581 68.4354 87.7581 70.5289 87.7581 72.7367C87.1895 72.7367 86.7373 72.7768 86.294 72.7306C80.9784 72.1765 78.2632 74.5007 78.0985 79.898C77.9735 83.9957 77.9852 88.0975 77.9245 92.1972C77.9224 92.338 77.7952 92.477 77.6865 92.6976C75.7747 92.6976 73.8244 92.6976 71.5693 92.6976C71.5693 89.4616 71.5693 86.2605 71.5693 82.822Z" fill="#242525"/>
<path d="M1.26367 38.6132C1.26367 38.6132 14.7472 7.11665 37.4563 8.08844C60.1655 9.06023 61.5848 49.3478 61.5848 49.3478C61.5848 49.3478 73.6643 18.8129 91.7454 18.8129C109.487 18.8129 110.359 49.3478 122.261 49.3478" stroke="#D0D9D6" stroke-width="2.37249" stroke-dasharray="5.69 5.69"/>
<mask id="mask0_159_340" style="mask-type:alpha" maskUnits="userSpaceOnUse" x="108" y="0" width="56" height="55">
<circle cx="136.258" cy="27.2837" r="27.0464" fill="#FFCCCC" stroke="black" stroke-width="0.474498"/>
</mask>
<g mask="url(#mask0_159_340)">
<path d="M125.057 26.5554C124.05 19.9524 128.596 16.7879 134.537 15.8099C139.419 15.0064 142.771 17.3572 144.962 21.4447C146.448 24.2158 147.635 27.1573 148.804 30.0832C149.262 31.2298 149.46 32.5357 149.511 33.7798C149.725 39.0147 147.462 41.752 142.299 42.5007C135.413 43.4991 132.176 41.2707 128.72 35.4578C127.131 32.7845 126.276 29.6746 125.057 26.5554Z" fill="#0BA4D7"/>
<path d="M108.843 22.7078C112.596 20.7218 117.642 22.242 119.524 25.7932C122.836 32.0417 126.081 38.3259 129.444 44.5469C130.758 46.9766 132.415 49.2241 133.732 51.6522C134.646 53.3361 135.223 55.5936 133.423 56.7036C132.117 57.5083 129.633 57.6767 128.309 56.9662C124.912 55.1425 121.486 53.0539 118.763 50.3792C113.071 44.7876 109.292 37.9266 107.026 30.2691C106.191 27.4462 106.486 24.9473 108.843 22.7078Z" fill="#F4B815"/>
<path d="M137.667 2.95288C138.785 0.0651114 140.56 -0.877108 143.275 -0.0329795C146.136 0.856662 148.57 2.43737 150.225 4.98705C151.501 6.95151 152.738 8.95534 153.798 11.0403C154.427 12.2779 154.877 13.6808 155.058 15.0553C155.353 17.3061 155.223 19.576 152.764 20.7394C150.419 21.8482 148.127 21.0221 146.743 19.3112C143.641 15.4774 140.837 11.3837 138.166 7.23244C137.491 6.1833 137.771 4.51969 137.667 2.95288Z" fill="#EB2F96"/>
<path d="M119.718 3.75581C120.826 3.12575 121.769 2.5477 122.762 2.07528C124.939 1.04013 126.692 1.82423 126.434 4.15129C125.963 8.4138 125.303 12.7504 123.934 16.7891C122.808 20.1109 119.89 20.0603 117.878 17.1408C117.699 16.8813 117.565 16.5861 117.361 16.3501C112.663 10.92 113.986 7.5273 119.718 3.75581Z" fill="#0BA4D7"/>
<path d="M157.34 46.1326C154.136 50.252 150.323 53.1553 145.37 54.3647C145.194 54.0451 145.034 53.8751 145.07 53.8018C146.936 50.0059 148.41 45.9258 150.839 42.53C152.534 40.1617 155.468 38.6244 157.994 36.9329C159.125 36.1752 159.657 37.1767 159.755 38.2829C160.009 41.1608 159.273 43.7419 157.34 46.1326Z" fill="#0BA4D7"/>
<path d="M158.049 24.1594C157.647 22.1472 157.235 20.312 157.031 18.4539C156.737 15.7726 157.889 13.8978 160.763 12.8579C163.458 17.7867 165.38 22.8548 164.097 28.5966C163.904 29.4604 162.9 30.1431 162.271 30.9097C161.627 30.2875 160.805 29.7677 160.376 29.0217C159.515 27.5218 158.868 25.8986 158.049 24.1594Z" fill="#EB2F96"/>
<path d="M145.523 48.585C144.331 50.5336 143.444 52.5793 141.953 53.985C140.774 55.0975 138.853 55.4246 137.337 56.0686C136.482 52.1605 135.751 48.8242 135.061 45.6667C138.674 45.4016 142.466 45.1234 146.61 44.8193C146.282 45.9488 145.925 47.1774 145.523 48.585Z" fill="#242525"/>
<path d="M153.814 36.7858C153.369 36.4195 152.94 36.0324 152.816 35.5644C151.993 32.4665 151.225 29.3538 150.464 26.2399C150.245 25.3432 149.336 24.0649 150.885 23.7411C152.404 23.4234 154.376 21.8396 155.554 23.8958C157.033 26.4767 158.083 29.3154 159.152 32.1068C159.332 32.5771 158.845 33.6066 158.36 33.9695C156.982 35.0018 155.446 35.8232 153.814 36.7858Z" fill="#EB2F96"/>
<path d="M135.385 12.9152C132.927 13.4877 130.659 14.0206 127.865 14.6769C128.127 12.2584 127.991 9.84008 128.776 7.77117C129.183 6.69961 131.153 5.97225 132.55 5.62689C133.287 5.44461 134.618 6.19237 135.139 6.91243C136.265 8.46824 137.041 10.277 138.052 12.1551C137.035 12.4509 136.304 12.6633 135.385 12.9152Z" fill="#0BA4D7"/>
<path d="M128.521 2.28542C128.278 1.45148 128.071 0.794905 127.756 -0.209349C130.881 -0.62497 133.815 -1.01518 136.883 -1.42334C135.594 3.28984 134.216 3.76931 130.196 3.87313C129.662 3.88692 129.105 2.95613 128.521 2.28542Z" fill="#EB2F96"/>
<path d="M109.018 19.6682C108.952 17.2453 109.923 14.8773 112.117 12.4722C113.414 14.5395 114.653 16.515 116.231 19.0306C113.513 19.3286 111.459 19.5538 109.206 19.7196C109.008 19.6602 109.018 19.6682 109.018 19.6682Z" fill="#F4B815"/>
<path d="M152.198 3.99365C154.291 5.82011 156.465 7.56587 158.406 9.54164C158.791 9.93337 158.277 11.2079 158.177 12.0753C157.416 11.856 156.262 11.8741 155.961 11.3766C154.589 9.10383 153.456 6.68638 152.214 4.16153C152.192 4.00214 152.198 3.99365 152.198 3.99365Z" fill="#F4B815"/>
<path d="M161.213 40.5477C161.474 38.6863 161.609 36.7943 162.05 34.9765C162.267 34.0832 163.051 33.3273 163.578 32.5093C163.847 32.6371 164.116 32.7649 164.385 32.8928C163.423 35.393 162.46 37.8933 161.352 40.4678C161.206 40.5421 161.213 40.5477 161.213 40.5477Z" fill="#E41232"/>
<path d="M117.784 48.609C118.142 48.882 118.395 49.0562 118.647 49.2304C118.441 49.4277 118.235 49.6249 118.028 49.8222C116.079 47.7516 114.13 45.6811 112.181 43.6105C112.397 43.39 112.613 43.1696 112.829 42.9492C113.637 43.8478 114.456 44.7367 115.25 45.6475C116.072 46.5908 116.87 47.5552 117.784 48.609Z" fill="#E41232"/>
<path d="M161.204 40.5396C161.108 40.6664 161.013 40.796 160.919 40.9256C160.954 40.8048 160.989 40.6839 161.118 40.5555C161.213 40.5479 161.207 40.5423 161.204 40.5396Z" fill="#E41232"/>
<path d="M152.187 4.00486C152.131 3.93447 152.079 3.86127 152.027 3.78809C152.068 3.81289 152.109 3.8377 152.174 3.92804C152.198 3.99358 152.191 4.00206 152.187 4.00486Z" fill="#F4B815"/>
<path d="M109.003 19.6553C108.955 19.6675 108.911 19.6846 108.943 19.685C109.018 19.6683 109.008 19.6602 109.003 19.6553Z" fill="#F4B815"/>
</g>
</svg>
