<svg width="468" height="57" viewBox="0 0 468 57" fill="none" xmlns="http://www.w3.org/2000/svg">
<path d="M220.893 6.76261C223.367 6.6321 225.697 6.6321 228.186 6.6321C228.186 19.608 228.186 32.539 228.186 45.5843C226.013 45.5843 223.943 45.5843 221.627 45.5843C221.627 37.1682 221.627 28.8053 221.627 20.4425C221.488 20.408 221.348 20.3735 221.209 20.339C220.878 20.9331 220.513 21.5112 220.221 22.124C217.748 27.3178 215.236 32.4942 212.86 37.7322C212.25 39.0777 211.457 39.538 210.075 39.3881C208.573 39.2252 207.015 39.8729 206.072 37.7152C203.837 32.5984 201.268 27.6271 198.829 22.5993C198.45 21.8179 198.047 21.0481 197.156 20.3278C197.156 28.724 197.156 37.1202 197.156 45.6025C194.693 45.6025 192.602 45.6025 190.382 45.6025C190.382 32.6831 190.382 19.7937 190.382 6.48545C192.623 6.48545 194.943 6.37874 197.239 6.56535C197.77 6.60851 198.359 7.58604 198.685 8.24972C201.862 14.7235 204.989 21.2223 208.133 27.7127C208.505 28.4812 208.893 29.2423 209.462 30.3876C213.351 22.2935 217.05 14.5933 220.893 6.76261Z" fill="#242525"/>
<path d="M402.679 18.7892C404.609 18.4863 405.17 19.2633 404.813 20.3016C407.325 19.5999 409.909 18.4815 412.574 18.239C415.56 17.9672 417.952 19.6765 419.292 21.7391C421.72 20.537 423.866 18.9315 426.252 18.3995C432.32 17.046 437.208 21.0337 437.401 27.35C437.584 33.3432 437.44 39.3464 437.44 45.5229C435.248 45.5229 433.123 45.5229 430.747 45.5229C430.747 39.9499 430.809 34.4534 430.72 28.9594C430.678 26.3234 429.214 24.7718 426.85 24.4199C424.677 24.0966 422.719 25.1903 421.86 27.4042C421.49 28.3563 421.317 29.4395 421.305 30.4659C421.25 35.4085 421.28 40.3521 421.28 45.4993C419.046 45.4993 416.925 45.4993 414.564 45.4993C414.564 40.1671 414.626 34.8343 414.544 29.5037C414.482 25.4328 411.658 23.3966 408.034 24.7959C405.592 25.7387 404.841 27.8742 404.826 30.2965C404.795 35.3233 404.817 40.3504 404.817 45.5428C402.598 45.5428 400.535 45.5428 398.302 45.5428C398.302 36.7241 398.302 27.8554 398.302 18.7859C399.751 18.7859 401.109 18.7859 402.679 18.7892Z" fill="#242525"/>
<path d="M444.318 22.3621C449.468 17.116 454.989 16.7173 461.119 21.182C461.296 20.3929 461.455 19.6833 461.631 18.8972C463.751 18.8972 465.83 18.8972 467.962 18.8972C467.962 27.8447 467.962 36.6583 467.962 45.5962C465.824 45.5962 463.752 45.5962 461.531 45.5962C461.457 44.7621 461.389 43.9939 461.289 42.8544C458.318 45.5219 455.106 46.6934 451.374 45.9657C442.049 44.1476 437.687 32.6355 443.085 24.0814C443.43 23.5348 443.835 23.026 444.318 22.3621ZM456.713 39.6479C460.319 37.6768 461.929 34.5307 461.331 30.6227C460.811 27.2152 458.069 24.5333 454.891 24.3231C451.712 24.1128 448.841 26.1811 447.746 29.4342C445.915 34.8729 450.598 41.2837 456.713 39.6479Z" fill="#242525"/>
<path d="M308.78 30.5914C308.78 35.6864 308.78 40.5377 308.78 45.5309C306.611 45.5309 304.618 45.5309 302.498 45.5309C302.362 44.7198 302.219 43.8631 302.023 42.6947C299.214 45.4565 295.996 46.6989 292.253 46.0512C289.284 45.5373 286.781 44.1079 284.85 41.7501C280.136 35.9933 280.29 27.459 285.204 22.0897C289.624 17.2594 295.509 16.9319 302.076 21.2328C302.161 20.4765 302.238 19.7827 302.333 18.933C304.405 18.933 306.471 18.933 308.78 18.933C308.78 22.7722 308.78 26.56 308.78 30.5914ZM297.238 24.7442C293.514 23.9057 290.673 25.0682 288.962 28.1306C286.812 31.9805 288.238 37.0097 292.068 39.0819C295.489 40.9329 299.552 39.5817 301.309 36.0082C303.385 31.7867 301.808 27.0424 297.238 24.7442Z" fill="#242525"/>
<path d="M259.181 22.8352C259.181 30.5243 259.181 37.975 259.181 45.5641C256.998 45.5641 255.001 45.5641 252.89 45.5641C252.792 44.8169 252.69 44.0413 252.521 42.7573C249.705 45.4754 246.59 46.7001 242.968 46.0235C239.457 45.3678 236.679 43.5504 234.658 40.5763C230.714 34.7734 231.407 26.7209 236.298 21.7626C240.751 17.2495 246.082 17.0069 252.444 21.1356C252.615 20.3492 252.773 19.6247 252.943 18.8438C255.013 18.8438 257.015 18.8438 259.181 18.8438C259.181 20.1778 259.181 21.3873 259.181 22.8352ZM252.743 32.2904C252.688 31.7298 252.689 31.1566 252.568 30.6104C251.633 26.3812 248.323 23.8343 244.638 24.4822C240.668 25.1802 238.096 29.0919 238.765 33.4144C239.393 37.4715 242.871 40.2818 246.766 39.8788C249.947 39.5495 251.985 37.0988 252.743 32.2904Z" fill="#242525"/>
<path d="M362.465 37.8401C363.731 38.9725 364.88 39.9772 366.016 40.9711C362.112 46.2946 354.112 47.7753 347.981 44.4284C342.082 41.2089 339.491 33.506 342.08 26.8898C344.745 20.0795 351.15 16.7568 358.138 18.5587C364.553 20.2127 368.504 26.8216 367.557 34.575C361.215 34.575 354.843 34.575 348.3 34.575C348.394 36.9814 349.685 38.3611 351.422 39.2498C354.394 40.7703 357.338 40.5501 360.158 38.6783C360.812 38.2437 361.613 38.0285 362.465 37.8401ZM353.914 29.5728C356.218 29.5728 358.521 29.5728 360.864 29.5728C360.164 25.7491 357.98 23.8155 354.622 23.8266C351.099 23.8382 348.666 25.9253 348.154 29.574C349.933 29.574 351.684 29.574 353.914 29.5728Z" fill="#242525"/>
<path d="M375.478 36.1315C372.926 30.3554 370.451 24.7479 367.805 18.7523C370.17 18.7523 372.173 18.6473 374.152 18.8204C374.7 18.8684 375.385 19.6496 375.653 20.252C377.788 25.0489 379.837 29.8837 382.165 35.2942C383.23 32.8006 384.072 30.8503 384.897 28.8929C386.123 25.985 387.274 23.0426 388.606 20.1845C388.898 19.5586 389.782 18.8958 390.456 18.8216C392.198 18.6299 393.976 18.7573 396.076 18.7573C393.132 25.6175 390.315 32.2014 387.48 38.7774C385.27 43.9032 382.987 48.9981 380.849 54.1532C380.267 55.5574 379.548 56.1705 377.993 56.025C376.4 55.8759 374.783 55.9919 372.83 55.9919C374.476 52.3001 375.902 48.8177 377.576 45.4588C378.466 43.6737 378.458 42.1906 377.451 40.4986C376.67 39.1878 376.176 37.706 375.478 36.1315Z" fill="#242525"/>
<path d="M319.947 45.024C317.808 45.4553 315.694 45.6587 313.423 45.8773C313.423 36.6954 313.423 27.8816 313.423 18.9251C315.427 18.9251 317.421 18.9251 319.607 18.9251C319.715 19.6149 319.836 20.3829 320.004 21.4463C322.906 18.8624 326.031 17.5846 329.795 18.3169C333.959 19.1271 337.249 22.0205 337.478 26.276C337.82 32.6525 337.567 39.061 337.567 45.572C335.534 45.572 333.525 45.572 331.212 45.572C331.212 41.5258 331.213 37.4202 331.211 33.3146C331.211 32.2596 331.221 31.2041 331.194 30.1496C331.103 26.5439 329.223 24.4687 325.986 24.3801C322.855 24.2945 320.211 26.641 320.102 29.9465C319.94 34.8925 320.004 39.8459 319.947 45.024Z" fill="#242525"/>
<path d="M263.536 35.4625C263.536 29.8029 263.536 24.387 263.536 18.8836C265.766 18.8836 267.844 18.8836 270.037 18.8836C270.152 19.9162 270.256 20.8566 270.398 22.1265C273.034 18.9975 276.089 17.45 280.157 18.5082C280.157 20.6922 280.157 22.8414 280.157 25.1082C279.573 25.1082 279.109 25.1493 278.654 25.1019C273.196 24.533 270.409 26.9192 270.24 32.4605C270.111 36.6674 270.123 40.8786 270.061 45.0877C270.059 45.2323 269.928 45.3749 269.817 45.6014C267.854 45.6014 265.852 45.6014 263.536 45.6014C263.536 42.2792 263.536 38.9926 263.536 35.4625Z" fill="#242525"/>
<path d="M2 39.6428C2 39.6428 15.8431 7.30617 39.1579 8.30387C62.4727 9.30157 63.9299 50.6636 63.9299 50.6636C63.9299 50.6636 76.3315 19.3144 94.8948 19.3144C113.109 19.3144 114.005 50.6636 126.224 50.6636" stroke="#D0D9D6" stroke-width="2.43577" stroke-dasharray="5.85 5.85"/>
<mask id="mask0_69_3709" style="mask-type:alpha" maskUnits="userSpaceOnUse" x="112" y="0" width="57" height="57">
<circle cx="140.595" cy="28.0113" r="27.7677" fill="#FFCCCC" stroke="black" stroke-width="0.487153"/>
</mask>
<g mask="url(#mask0_69_3709)">
<path d="M129.095 27.2641C128.061 20.4851 132.728 17.2362 138.828 16.232C143.839 15.4071 147.282 17.8206 149.531 22.0171C151.057 24.8622 152.275 27.8821 153.475 30.886C153.945 32.0632 154.149 33.4039 154.201 34.6812C154.421 40.0557 152.098 42.866 146.797 43.6346C139.727 44.6597 136.404 42.3719 132.856 36.4039C131.224 33.6593 130.346 30.4665 129.095 27.2641Z" fill="#0BA4D7"/>
<path d="M112.448 23.3133C116.301 21.2743 121.482 22.8351 123.414 26.481C126.815 32.8961 130.146 39.348 133.599 45.7348C134.948 48.2294 136.649 50.5368 138.001 53.0297C138.939 54.7585 139.532 57.0762 137.684 58.2158C136.344 59.042 133.793 59.2148 132.434 58.4854C128.946 56.6131 125.428 54.4688 122.633 51.7228C116.789 45.982 112.909 38.938 110.583 31.0763C109.726 28.1781 110.029 25.6126 112.448 23.3133Z" fill="#F4B815"/>
<path d="M142.041 3.03165C143.189 0.0668619 145.011 -0.900486 147.798 -0.033845C150.736 0.879523 153.235 2.50239 154.934 5.12006C156.244 7.13691 157.514 9.19419 158.602 11.3348C159.248 12.6053 159.71 14.0456 159.896 15.4568C160.199 17.7676 160.065 20.0981 157.54 21.2925C155.133 22.4309 152.78 21.5828 151.359 19.8263C148.174 15.8902 145.296 11.6873 142.553 7.42534C141.86 6.34822 142.147 4.64024 142.041 3.03165Z" fill="#EB2F96"/>
<path d="M123.613 3.85556C124.751 3.20869 125.719 2.61523 126.739 2.1302C128.973 1.06745 130.773 1.87246 130.509 4.26158C130.025 8.63777 129.347 13.09 127.942 17.2364C126.786 20.6468 123.79 20.5949 121.724 17.5975C121.541 17.3311 121.403 17.028 121.193 16.7858C116.37 11.2109 117.728 7.72763 123.613 3.85556Z" fill="#0BA4D7"/>
<path d="M162.239 47.363C158.949 51.5923 155.035 54.573 149.95 55.8147C149.769 55.4866 149.605 55.3121 149.642 55.2367C151.557 51.3397 153.07 47.1507 155.565 43.6643C157.304 41.2329 160.317 39.6545 162.91 37.918C164.072 37.1401 164.618 38.1683 164.718 39.3039C164.979 42.2586 164.223 44.9086 162.239 47.363Z" fill="#0BA4D7"/>
<path d="M162.967 24.8041C162.554 22.7382 162.131 20.8541 161.922 18.9464C161.62 16.1936 162.802 14.2688 165.753 13.2012C168.52 18.2614 170.493 23.4647 169.176 29.3596C168.978 30.2465 167.947 30.9474 167.302 31.7344C166.64 31.0956 165.796 30.562 165.356 29.796C164.472 28.2561 163.808 26.5896 162.967 24.8041Z" fill="#EB2F96"/>
<path d="M150.106 49.8798C148.883 51.8804 147.972 53.9806 146.442 55.4238C145.231 56.566 143.259 56.9017 141.702 57.563C140.824 53.5506 140.074 50.1254 139.365 46.8836C143.075 46.6114 146.968 46.3258 151.223 46.0137C150.886 47.1733 150.519 48.4346 150.106 49.8798Z" fill="#242525"/>
<path d="M158.619 37.7666C158.162 37.3905 157.722 36.9931 157.594 36.5126C156.75 33.3321 155.961 30.1363 155.179 26.9394C154.954 26.0189 154.022 24.7064 155.611 24.374C157.171 24.0479 159.196 22.4218 160.405 24.5328C161.923 27.1826 163.002 30.097 164.099 32.9629C164.284 33.4457 163.784 34.5026 163.286 34.8752C161.871 35.9351 160.294 36.7783 158.619 37.7666Z" fill="#EB2F96"/>
<path d="M139.698 13.2593C137.175 13.847 134.846 14.3941 131.978 15.0679C132.247 12.585 132.107 10.1021 132.913 7.97802C133.331 6.87789 135.354 6.13113 136.787 5.77656C137.544 5.58942 138.911 6.35712 139.446 7.09638C140.601 8.69368 141.398 10.5507 142.437 12.4789C141.392 12.7825 140.642 13.0006 139.698 13.2593Z" fill="#0BA4D7"/>
<path d="M132.651 2.34575C132.401 1.48958 132.19 0.815491 131.866 -0.215547C135.074 -0.642252 138.086 -1.04287 141.237 -1.46191C139.912 3.37697 138.498 3.86922 134.371 3.97582C133.823 3.98997 133.25 3.03435 132.651 2.34575Z" fill="#EB2F96"/>
<path d="M112.628 20.1927C112.56 17.7052 113.558 15.2739 115.81 12.8047C117.142 14.9271 118.414 16.9554 120.034 19.5381C117.243 19.844 115.134 20.0752 112.821 20.2454C112.618 20.1844 112.628 20.1927 112.628 20.1927Z" fill="#F4B815"/>
<path d="M156.96 4.09961C159.108 5.97478 161.341 7.7671 163.334 9.79556C163.729 10.1977 163.201 11.5062 163.099 12.3968C162.317 12.1716 161.132 12.1903 160.823 11.6794C159.414 9.34608 158.251 6.86415 156.976 4.27196C156.953 4.10832 156.96 4.09961 156.96 4.09961Z" fill="#F4B815"/>
<path d="M166.215 41.6298C166.484 39.7187 166.622 37.7763 167.075 35.91C167.297 34.9928 168.102 34.2168 168.643 33.377C168.92 33.5082 169.196 33.6394 169.472 33.7707C168.484 36.3376 167.496 38.9046 166.358 41.5478C166.209 41.624 166.215 41.6298 166.215 41.6298Z" fill="#E41232"/>
<path d="M121.628 49.9055C121.995 50.1857 122.255 50.3646 122.514 50.5434C122.302 50.746 122.091 50.9485 121.879 51.151C119.878 49.0252 117.877 46.8994 115.876 44.7736C116.098 44.5473 116.319 44.321 116.541 44.0947C117.371 45.0172 118.211 45.9299 119.026 46.8649C119.871 47.8334 120.69 48.8235 121.628 49.9055Z" fill="#E41232"/>
<path d="M166.206 41.6211C166.107 41.7513 166.01 41.8844 165.914 42.0174C165.95 41.8934 165.985 41.7693 166.118 41.6374C166.215 41.6297 166.209 41.6239 166.206 41.6211Z" fill="#E41232"/>
<path d="M156.949 4.11123C156.891 4.03896 156.838 3.96381 156.785 3.88867C156.827 3.91414 156.869 3.93961 156.935 4.03236C156.96 4.09965 156.953 4.10836 156.949 4.11123Z" fill="#F4B815"/>
<path d="M112.613 20.1797C112.563 20.1922 112.518 20.2098 112.551 20.2102C112.628 20.193 112.618 20.1847 112.613 20.1797Z" fill="#F4B815"/>
</g>
</svg>
