<svg width="354" height="57" viewBox="0 0 354 57" fill="none" xmlns="http://www.w3.org/2000/svg">
<path d="M106.511 3.30754C108.985 3.17702 111.315 3.17702 113.804 3.17702C113.804 16.1529 113.804 29.084 113.804 42.1292C111.631 42.1292 109.561 42.1292 107.245 42.1292C107.245 33.7131 107.245 25.3502 107.245 16.9874C107.106 16.9529 106.966 16.9184 106.827 16.8839C106.496 17.4781 106.131 18.0561 105.839 18.669C103.366 23.8627 100.854 29.0391 98.4778 34.2771C97.8675 35.6227 97.0746 36.0829 95.6931 35.933C94.1911 35.7701 92.6332 36.4178 91.6904 34.2601C89.4546 29.1433 86.8856 24.1721 84.4467 19.1442C84.0676 18.3628 83.6646 17.593 82.7744 16.8728C82.7744 25.269 82.7744 33.6652 82.7744 42.1474C80.3112 42.1474 78.2197 42.1474 76 42.1474C76 29.2281 76 16.3386 76 3.03038C78.2409 3.03038 80.5608 2.92366 82.857 3.11027C83.3879 3.15343 83.977 4.13096 84.3027 4.79464C87.4805 11.2684 90.6072 17.7672 93.7509 24.2576C94.1232 25.0261 94.5105 25.7873 95.0803 26.9326C98.9685 18.8385 102.668 11.1383 106.511 3.30754Z" fill="#242525"/>
<path d="M288.297 15.3341C290.227 15.0313 290.788 15.8083 290.431 16.8466C292.943 16.1449 295.527 15.0264 298.192 14.7839C301.178 14.5121 303.57 16.2214 304.91 18.284C307.338 17.0819 309.484 15.4764 311.87 14.9444C317.938 13.5909 322.826 17.5786 323.019 23.8949C323.202 29.8882 323.058 35.8914 323.058 42.0678C320.866 42.0678 318.741 42.0678 316.365 42.0678C316.365 36.4949 316.427 30.9984 316.338 25.5043C316.296 22.8683 314.832 21.3167 312.468 20.9649C310.295 20.6415 308.337 21.7352 307.478 23.9491C307.108 24.9012 306.935 25.9844 306.923 27.0108C306.868 31.9535 306.898 36.897 306.898 42.0443C304.664 42.0443 302.543 42.0443 300.182 42.0443C300.182 36.7121 300.244 31.3792 300.162 26.0486C300.1 21.9777 297.276 19.9415 293.652 21.3408C291.21 22.2836 290.459 24.4191 290.444 26.8414C290.413 31.8682 290.435 36.8953 290.435 42.0877C288.216 42.0877 286.153 42.0877 283.92 42.0877C283.92 33.269 283.92 24.4003 283.92 15.3308C285.369 15.3308 286.727 15.3308 288.297 15.3341Z" fill="#242525"/>
<path d="M329.936 18.907C335.086 13.6609 340.607 13.2623 346.737 17.7269C346.914 16.9378 347.073 16.2282 347.249 15.4421C349.369 15.4421 351.448 15.4421 353.58 15.4421C353.58 24.3896 353.58 33.2032 353.58 42.1411C351.442 42.1411 349.37 42.1411 347.149 42.1411C347.075 41.307 347.007 40.5388 346.907 39.3993C343.936 42.0669 340.724 43.2383 336.992 42.5107C327.667 40.6926 323.305 29.1804 328.703 20.6264C329.048 20.0797 329.453 19.5709 329.936 18.907ZM342.331 36.1928C345.937 34.2218 347.547 31.0756 346.949 27.1677C346.429 23.7601 343.687 21.0783 340.509 20.868C337.33 20.6577 334.459 22.726 333.364 25.9791C331.533 31.4178 336.216 37.8286 342.331 36.1928Z" fill="#242525"/>
<path d="M194.398 27.1364C194.398 32.2313 194.398 37.0827 194.398 42.0758C192.229 42.0758 190.236 42.0758 188.116 42.0758C187.98 41.2648 187.837 40.408 187.641 39.2396C184.832 42.0014 181.614 43.2438 177.871 42.5961C174.902 42.0823 172.399 40.6528 170.468 38.295C165.754 32.5382 165.908 24.0039 170.822 18.6346C175.242 13.8043 181.127 13.4768 187.694 17.7778C187.779 17.0214 187.856 16.3277 187.951 15.478C190.023 15.478 192.089 15.478 194.398 15.478C194.398 19.3171 194.398 23.1049 194.398 27.1364ZM182.856 21.2891C179.132 20.4506 176.291 21.6132 174.58 24.6756C172.43 28.5254 173.856 33.5546 177.686 35.6268C181.107 37.4778 185.17 36.1266 186.927 32.5531C189.003 28.3316 187.426 23.5873 182.856 21.2891Z" fill="#242525"/>
<path d="M144.799 19.3801C144.799 27.0692 144.799 34.5199 144.799 42.109C142.616 42.109 140.619 42.109 138.508 42.109C138.41 41.3618 138.308 40.5862 138.139 39.3022C135.323 42.0203 132.208 43.2451 128.586 42.5684C125.075 41.9127 122.297 40.0953 120.276 37.1212C116.332 31.3184 117.024 23.2658 121.916 18.3075C126.369 13.7944 131.7 13.5518 138.062 17.6805C138.233 16.8941 138.391 16.1696 138.561 15.3887C140.631 15.3887 142.633 15.3887 144.799 15.3887C144.799 16.7227 144.799 17.9322 144.799 19.3801ZM138.361 28.8353C138.306 28.2747 138.307 27.7015 138.186 27.1553C137.251 22.9261 133.941 20.3792 130.256 21.0271C126.286 21.7252 123.714 25.6369 124.383 29.9593C125.011 34.0164 128.489 36.8267 132.384 36.4237C135.565 36.0944 137.603 33.6437 138.361 28.8353Z" fill="#242525"/>
<path d="M248.082 34.385C249.349 35.5174 250.498 36.5221 251.634 37.5161C247.73 42.8395 239.73 44.3202 233.599 40.9733C227.7 37.7538 225.109 30.0509 227.698 23.4347C230.363 16.6245 236.768 13.3017 243.756 15.1036C250.17 16.7577 254.122 23.3666 253.175 31.1199C246.833 31.1199 240.461 31.1199 233.918 31.1199C234.012 33.5263 235.303 34.9061 237.04 35.7947C240.012 37.3152 242.956 37.095 245.776 35.2232C246.43 34.7886 247.231 34.5734 248.082 34.385ZM239.532 26.1177C241.836 26.1177 244.139 26.1177 246.482 26.1177C245.782 22.294 243.598 20.3604 240.24 20.3715C236.717 20.3831 234.284 22.4702 233.772 26.1189C235.55 26.1189 237.302 26.1189 239.532 26.1177Z" fill="#242525"/>
<path d="M261.096 32.6764C258.544 26.9003 256.069 21.2929 253.423 15.2972C255.788 15.2972 257.791 15.1922 259.77 15.3653C260.318 15.4133 261.003 16.1945 261.271 16.7969C263.406 21.5938 265.455 26.4286 267.783 31.8391C268.848 29.3455 269.69 27.3952 270.515 25.4379C271.741 22.53 272.892 19.5876 274.224 16.7294C274.516 16.1035 275.4 15.4407 276.074 15.3666C277.816 15.1748 279.594 15.3023 281.694 15.3023C278.75 22.1624 275.933 28.7463 273.098 35.3223C270.888 40.4481 268.605 45.543 266.467 50.6981C265.884 52.1023 265.166 52.7155 263.611 52.5699C262.018 52.4208 260.401 52.5368 258.448 52.5368C260.094 48.845 261.52 45.3626 263.194 42.0037C264.084 40.2187 264.076 38.7356 263.068 37.0435C262.288 35.7327 261.794 34.2509 261.096 32.6764Z" fill="#242525"/>
<path d="M205.565 41.5689C203.426 42.0002 201.312 42.2037 199.041 42.4222C199.041 33.2404 199.041 24.4265 199.041 15.47C201.045 15.47 203.039 15.47 205.225 15.47C205.333 16.1598 205.454 16.9278 205.622 17.9912C208.524 15.4073 211.649 14.1295 215.413 14.8618C219.577 15.672 222.867 18.5654 223.096 22.8209C223.438 29.1975 223.185 35.6059 223.185 42.117C221.152 42.117 219.143 42.117 216.83 42.117C216.83 38.0707 216.831 33.9651 216.829 29.8596C216.829 28.8045 216.839 27.749 216.812 26.6945C216.721 23.0888 214.841 21.0136 211.604 20.9251C208.473 20.8394 205.829 23.1859 205.72 26.4914C205.557 31.4374 205.622 36.3909 205.565 41.5689Z" fill="#242525"/>
<path d="M149.154 32.0074C149.154 26.3479 149.154 20.9319 149.154 15.4285C151.384 15.4285 153.462 15.4285 155.655 15.4285C155.77 16.4612 155.874 17.4016 156.016 18.6715C158.652 15.5424 161.707 13.9949 165.775 15.0531C165.775 17.2371 165.775 19.3864 165.775 21.6531C165.191 21.6531 164.727 21.6942 164.272 21.6468C158.814 21.0779 156.027 23.4641 155.858 29.0054C155.729 33.2123 155.741 37.4235 155.679 41.6326C155.677 41.7772 155.546 41.9198 155.435 42.1464C153.472 42.1464 151.47 42.1464 149.154 42.1464C149.154 38.8241 149.154 35.5375 149.154 32.0074Z" fill="#242525"/>
<mask id="mask0_69_3861" style="mask-type:alpha" maskUnits="userSpaceOnUse" x="0" y="0" width="57" height="57">
<circle cx="28.0113" cy="28.0113" r="27.7677" fill="#FFCCCC" stroke="black" stroke-width="0.487153"/>
</mask>
<g mask="url(#mask0_69_3861)">
<path d="M16.5117 27.2641C15.4777 20.4851 20.1446 17.2362 26.2445 16.232C31.2557 15.4071 34.6978 17.8206 36.9475 22.0171C38.4728 24.8622 39.6913 27.8821 40.8912 30.886C41.3614 32.0632 41.5648 33.4039 41.617 34.6812C41.8368 40.0557 39.514 42.866 34.2131 43.6346C27.1436 44.6597 23.8205 42.3719 20.2722 36.4039C18.6404 33.6593 17.7624 30.4665 16.5117 27.2641Z" fill="#0BA4D7"/>
<path d="M-0.135428 23.3133C3.71762 21.2743 8.89794 22.8351 10.8306 26.481C14.2311 32.8961 17.5621 39.348 21.0156 45.7349C22.3644 48.2294 24.065 50.5368 25.4175 53.0297C26.3555 54.7585 26.9486 57.0762 25.1001 58.2158C23.7599 59.042 21.2089 59.2148 19.8499 58.4854C16.3621 56.6131 12.8447 54.4687 10.0494 51.7228C4.20566 45.982 0.325344 38.938 -2.00034 31.0763C-2.85769 28.1781 -2.5547 25.6126 -0.135428 23.3133Z" fill="#F4B815"/>
<path d="M29.4574 3.03165C30.6056 0.0668619 32.4273 -0.900486 35.2146 -0.033845C38.1522 0.879523 40.651 2.50239 42.3507 5.12006C43.6604 7.13691 44.9302 9.19419 46.0184 11.3348C46.6644 12.6053 47.1266 14.0456 47.3118 15.4568C47.6151 17.7676 47.4817 20.0981 44.9565 21.2925C42.5497 22.4309 40.1965 21.5828 38.7752 19.8263C35.5904 15.8901 32.712 11.6873 29.9695 7.42534C29.2764 6.34822 29.5637 4.64024 29.4574 3.03165Z" fill="#EB2F96"/>
<path d="M11.0291 3.85556C12.1673 3.20869 13.1355 2.61523 14.1552 2.1302C16.3893 1.06745 18.1891 1.87246 17.9249 4.26158C17.4411 8.63777 16.7633 13.09 15.3578 17.2364C14.2019 20.6468 11.2061 20.5949 9.14049 17.5975C8.95695 17.3311 8.81903 17.028 8.60941 16.7858C3.78655 11.2109 5.14421 7.72763 11.0291 3.85556Z" fill="#0BA4D7"/>
<path d="M49.6548 47.363C46.3657 51.5923 42.4511 54.573 37.3661 55.8147C37.1856 55.4866 37.021 55.3121 37.058 55.2367C38.9737 51.3397 40.4867 47.1507 42.9811 43.6643C44.7207 41.2329 47.7334 39.6545 50.3266 37.918C51.4883 37.1401 52.0341 38.1683 52.1344 39.3039C52.3956 42.2586 51.6397 44.9086 49.6548 47.363Z" fill="#0BA4D7"/>
<path d="M50.3834 24.8041C49.9704 22.7382 49.547 20.8541 49.3379 18.9464C49.0363 16.1936 50.2185 14.2688 53.169 13.2012C55.9363 18.2614 57.9093 23.4647 56.5922 29.3596C56.394 30.2465 55.3635 30.9474 54.718 31.7344C54.0567 31.0956 53.2124 30.562 52.7725 29.796C51.888 28.2561 51.2239 26.5896 50.3834 24.8041Z" fill="#EB2F96"/>
<path d="M37.5226 49.8798C36.2989 51.8804 35.3883 53.9806 33.8581 55.4238C32.6469 56.566 30.6753 56.9017 29.1182 57.563C28.2403 53.5506 27.4908 50.1254 26.7814 46.8836C30.4914 46.6114 34.3846 46.3258 38.6392 46.0137C38.302 47.1733 37.9352 48.4346 37.5226 49.8798Z" fill="#242525"/>
<path d="M46.0354 37.7666C45.5784 37.3905 45.1381 36.9931 45.0105 36.5126C44.1659 33.3321 43.3775 30.1363 42.5957 26.9394C42.3706 26.0189 41.438 24.7064 43.0278 24.374C44.5869 24.0479 46.6118 22.4218 47.8213 24.5328C49.3395 27.1826 50.4182 30.097 51.515 32.9629C51.6998 33.4457 51.1998 34.5026 50.7024 34.8752C49.2874 35.9351 47.7101 36.7783 46.0354 37.7666Z" fill="#EB2F96"/>
<path d="M27.1143 13.2593C24.5915 13.847 22.2623 14.3941 19.3942 15.0679C19.6629 12.585 19.5236 10.1021 20.3296 7.97802C20.7471 6.87789 22.7697 6.13113 24.2036 5.77656C24.9604 5.58942 26.3274 6.35712 26.8622 7.09638C28.0177 8.69368 28.8142 10.5507 29.8532 12.4789C28.8085 12.7826 28.0582 13.0006 27.1143 13.2593Z" fill="#0BA4D7"/>
<path d="M20.0674 2.34575C19.8176 1.48958 19.6059 0.815491 19.282 -0.215547C22.4902 -0.642252 25.5023 -1.04287 28.653 -1.46191C27.3287 3.37697 25.9147 3.86922 21.7872 3.97582C21.2394 3.98997 20.6666 3.03435 20.0674 2.34575Z" fill="#EB2F96"/>
<path d="M0.0444602 20.1927C-0.0235103 17.7052 0.973913 15.2739 3.22637 12.8047C4.55776 14.9271 5.83004 16.9554 7.45013 19.5381C4.65966 19.844 2.55047 20.0752 0.237743 20.2454C0.0341871 20.1844 0.0444602 20.1927 0.0444602 20.1927Z" fill="#F4B815"/>
<path d="M44.3761 4.09961C46.5245 5.97478 48.7573 7.7671 50.7498 9.79556C51.1448 10.1977 50.6171 11.5062 50.5149 12.3968C49.7334 12.1716 48.5481 12.1903 48.2396 11.6794C46.8303 9.34608 45.6671 6.86415 44.3925 4.27196C44.3694 4.10832 44.3761 4.09961 44.3761 4.09961Z" fill="#F4B815"/>
<path d="M53.6317 41.6298C53.8998 39.7187 54.0384 37.7763 54.4912 35.91C54.7137 34.9928 55.5183 34.2168 56.0595 33.377C56.3358 33.5082 56.6121 33.6394 56.8884 33.7707C55.9004 36.3376 54.9124 38.9046 53.7746 41.5478C53.6249 41.624 53.6317 41.6298 53.6317 41.6298Z" fill="#E41232"/>
<path d="M9.04426 49.9055C9.41162 50.1857 9.67103 50.3646 9.93045 50.5434C9.71866 50.746 9.50688 50.9485 9.29509 51.151C7.29409 49.0252 5.29309 46.8994 3.29208 44.7736C3.51385 44.5473 3.73562 44.321 3.9574 44.0947C4.78683 45.0172 5.62754 45.9299 6.4426 46.8649C7.28679 47.8334 8.10611 48.8235 9.04426 49.9055Z" fill="#E41232"/>
<path d="M53.6226 41.6211C53.5235 41.7513 53.4268 41.8844 53.3301 42.0174C53.3658 41.8934 53.4016 41.7693 53.5345 41.6374C53.6317 41.6297 53.6249 41.6239 53.6226 41.6211Z" fill="#E41232"/>
<path d="M44.3653 4.11123C44.3078 4.03896 44.2543 3.96381 44.2008 3.88867C44.2428 3.91414 44.2848 3.93961 44.3514 4.03236C44.3761 4.09965 44.3694 4.10836 44.3653 4.11123Z" fill="#F4B815"/>
<path d="M0.0294465 20.1797C-0.0203123 20.1922 -0.0653139 20.2098 -0.0329343 20.2102C0.0444622 20.193 0.034189 20.1847 0.0294465 20.1797Z" fill="#F4B815"/>
</g>
</svg>
