<svg width="57" height="57" viewBox="0 0 57 57" fill="none" xmlns="http://www.w3.org/2000/svg">
<path d="M16.5117 27.2641C15.4777 20.4851 20.1446 17.2362 26.2445 16.232C31.2557 15.4071 34.6978 17.8206 36.9475 22.0171C38.4728 24.8622 39.6913 27.8821 40.8912 30.886C41.3614 32.0632 41.5648 33.4039 41.617 34.6812C41.8368 40.0557 39.514 42.866 34.2131 43.6346C27.1436 44.6597 23.8205 42.3719 20.2722 36.4039C18.6404 33.6593 17.7624 30.4665 16.5117 27.2641Z" fill="#0BA4D7"/>
<path d="M-0.135428 23.3133C3.71762 21.2743 8.89794 22.8351 10.8306 26.481C14.2311 32.8961 17.5621 39.348 21.0156 45.7349C22.3644 48.2294 24.065 50.5368 25.4175 53.0297C26.3555 54.7585 26.9486 57.0762 25.1001 58.2158C23.7599 59.042 21.2089 59.2148 19.8499 58.4854C16.3621 56.6131 12.8447 54.4687 10.0494 51.7228C4.20566 45.982 0.325344 38.938 -2.00034 31.0763C-2.85769 28.1781 -2.5547 25.6126 -0.135428 23.3133Z" fill="#F4B815"/>
<path d="M29.4574 3.03165C30.6056 0.0668619 32.4273 -0.900486 35.2146 -0.033845C38.1522 0.879523 40.651 2.50239 42.3507 5.12006C43.6604 7.13691 44.9302 9.19419 46.0184 11.3348C46.6644 12.6053 47.1266 14.0456 47.3118 15.4568C47.6151 17.7676 47.4817 20.0981 44.9565 21.2925C42.5497 22.4309 40.1965 21.5828 38.7752 19.8263C35.5904 15.8901 32.712 11.6873 29.9695 7.42534C29.2764 6.34822 29.5637 4.64024 29.4574 3.03165Z" fill="#EB2F96"/>
<path d="M11.0291 3.85556C12.1673 3.20869 13.1355 2.61523 14.1552 2.1302C16.3893 1.06745 18.1891 1.87246 17.9249 4.26158C17.4411 8.63777 16.7633 13.09 15.3578 17.2364C14.2019 20.6468 11.2061 20.5949 9.14049 17.5975C8.95695 17.3311 8.81903 17.028 8.60941 16.7858C3.78655 11.2109 5.14421 7.72763 11.0291 3.85556Z" fill="#0BA4D7"/>
<path d="M49.6548 47.363C46.3657 51.5923 42.4511 54.573 37.3661 55.8147C37.1856 55.4866 37.021 55.3121 37.058 55.2367C38.9737 51.3397 40.4867 47.1507 42.9811 43.6643C44.7207 41.2329 47.7334 39.6545 50.3266 37.918C51.4883 37.1401 52.0341 38.1683 52.1344 39.3039C52.3956 42.2586 51.6397 44.9086 49.6548 47.363Z" fill="#0BA4D7"/>
<path d="M50.3834 24.8041C49.9704 22.7382 49.547 20.8541 49.3379 18.9464C49.0363 16.1936 50.2185 14.2688 53.169 13.2012C55.9363 18.2614 57.9093 23.4647 56.5922 29.3596C56.394 30.2465 55.3635 30.9474 54.718 31.7344C54.0567 31.0956 53.2124 30.562 52.7725 29.796C51.888 28.2561 51.2239 26.5896 50.3834 24.8041Z" fill="#EB2F96"/>
<path d="M37.5226 49.8798C36.2989 51.8804 35.3883 53.9806 33.8581 55.4238C32.6469 56.566 30.6753 56.9017 29.1182 57.563C28.2403 53.5506 27.4908 50.1254 26.7814 46.8836C30.4914 46.6114 34.3846 46.3258 38.6392 46.0137C38.302 47.1733 37.9352 48.4346 37.5226 49.8798Z" fill="white"/>
<path d="M46.0354 37.7666C45.5784 37.3905 45.1381 36.9931 45.0105 36.5126C44.1659 33.3321 43.3775 30.1363 42.5957 26.9394C42.3706 26.0189 41.438 24.7064 43.0278 24.374C44.5869 24.0479 46.6118 22.4218 47.8213 24.5328C49.3395 27.1826 50.4182 30.097 51.515 32.9629C51.6998 33.4457 51.1998 34.5026 50.7024 34.8752C49.2874 35.9351 47.7101 36.7783 46.0354 37.7666Z" fill="#EB2F96"/>
<path d="M27.1143 13.2593C24.5915 13.847 22.2623 14.3941 19.3942 15.0679C19.6629 12.585 19.5236 10.1021 20.3296 7.97802C20.7471 6.87789 22.7697 6.13113 24.2036 5.77656C24.9604 5.58942 26.3274 6.35712 26.8622 7.09638C28.0177 8.69368 28.8142 10.5507 29.8532 12.4789C28.8085 12.7826 28.0582 13.0006 27.1143 13.2593Z" fill="#0BA4D7"/>
<path d="M20.0674 2.34575C19.8176 1.48958 19.6059 0.815491 19.282 -0.215547C22.4902 -0.642252 25.5023 -1.04287 28.653 -1.46191C27.3287 3.37697 25.9147 3.86922 21.7872 3.97582C21.2394 3.98997 20.6666 3.03435 20.0674 2.34575Z" fill="#EB2F96"/>
<path d="M0.0444602 20.1927C-0.0235103 17.7052 0.973913 15.2739 3.22637 12.8047C4.55776 14.9271 5.83004 16.9554 7.45013 19.5381C4.65966 19.844 2.55047 20.0752 0.237743 20.2454C0.0341871 20.1844 0.0444602 20.1927 0.0444602 20.1927Z" fill="#F4B815"/>
<path d="M44.3761 4.09961C46.5245 5.97478 48.7573 7.7671 50.7498 9.79556C51.1448 10.1977 50.6171 11.5062 50.5149 12.3968C49.7334 12.1716 48.5481 12.1903 48.2396 11.6794C46.8303 9.34608 45.6671 6.86415 44.3925 4.27196C44.3694 4.10832 44.3761 4.09961 44.3761 4.09961Z" fill="#F4B815"/>
<path d="M53.6317 41.6298C53.8998 39.7187 54.0384 37.7763 54.4912 35.91C54.7137 34.9928 55.5183 34.2168 56.0595 33.377C56.3358 33.5082 56.6121 33.6394 56.8884 33.7707C55.9004 36.3376 54.9124 38.9046 53.7746 41.5478C53.6249 41.624 53.6317 41.6298 53.6317 41.6298Z" fill="#E41232"/>
<path d="M9.04426 49.9055C9.41162 50.1857 9.67103 50.3646 9.93045 50.5434C9.71866 50.746 9.50688 50.9485 9.29509 51.151C7.29409 49.0252 5.29309 46.8994 3.29208 44.7736C3.51385 44.5473 3.73562 44.321 3.9574 44.0947C4.78683 45.0172 5.62754 45.9299 6.4426 46.8649C7.28679 47.8334 8.10611 48.8235 9.04426 49.9055Z" fill="#E41232"/>
<path d="M53.6226 41.6211C53.5235 41.7513 53.4268 41.8844 53.3301 42.0174C53.3658 41.8934 53.4016 41.7693 53.5345 41.6374C53.6317 41.6297 53.6249 41.6239 53.6226 41.6211Z" fill="#E41232"/>
<path d="M44.3653 4.11123C44.3078 4.03896 44.2543 3.96381 44.2008 3.88867C44.2428 3.91414 44.2848 3.93961 44.3514 4.03236C44.3761 4.09965 44.3694 4.10836 44.3653 4.11123Z" fill="#F4B815"/>
<path d="M0.0294465 20.1797C-0.0203123 20.1922 -0.0653139 20.2098 -0.0329343 20.2102C0.0444622 20.193 0.034189 20.1847 0.0294465 20.1797Z" fill="#F4B815"/>
</svg>
